<svg width="157" height="158" viewBox="0 0 157 158" fill="none" xmlns="http://www.w3.org/2000/svg">
<path d="M92.1514 12.7107L88.3089 9.89793C84.8502 7.36605 80.1499 7.36605 76.6912 9.89794L72.8487 12.7107C70.5074 14.4246 67.5288 15.017 64.7099 14.3296L60.0835 13.2014C55.9191 12.1859 51.5767 13.9846 49.3501 17.6473L46.8765 21.7164C45.3693 24.1958 42.8442 25.8831 39.9767 26.3267L35.2708 27.0548C31.0348 27.7102 27.7112 31.0338 27.0558 35.2698L26.3277 39.9758C25.884 42.8432 24.1968 45.3684 21.7174 46.8755L17.6483 49.3491C13.9855 51.5757 12.1868 55.9181 13.2024 60.0825L14.3306 64.7089C15.018 67.5278 14.4255 70.5065 12.7117 72.8477L9.89891 76.6902C7.36703 80.1489 7.36703 84.8492 9.89891 88.308L12.7117 92.1504C14.4255 94.4917 15.018 97.4703 14.3306 100.289L13.2024 104.916C12.1868 109.08 13.9855 113.422 17.6483 115.649L21.7174 118.123C24.1968 119.63 25.884 122.155 26.3277 125.022L27.0558 129.728C27.7112 133.964 31.0348 137.288 35.2708 137.943L39.9767 138.671C42.8442 139.115 45.3693 140.802 46.8765 143.282L49.3501 147.351C51.5767 151.014 55.9191 152.812 60.0835 151.797L64.7099 150.669C67.5288 149.981 70.5074 150.574 72.8487 152.287L76.6912 155.1C80.1499 157.632 84.8502 157.632 88.3089 155.1L92.1514 152.287C94.4927 150.574 97.4713 149.981 100.29 150.669L104.917 151.797C109.081 152.812 113.423 151.014 115.65 147.351L118.124 143.282C119.631 140.802 122.156 139.115 125.023 138.671L129.729 137.943C133.965 137.288 137.289 133.964 137.944 129.728L138.672 125.022C139.116 122.155 140.803 119.63 143.283 118.123L147.352 115.649C151.015 113.422 152.813 109.08 151.798 104.916L150.67 100.289C149.982 97.4703 150.575 94.4917 152.288 92.1504L155.101 88.3079C157.633 84.8492 157.633 80.1489 155.101 76.6902L152.288 72.8477C150.575 70.5065 149.982 67.5278 150.67 64.7089L151.798 60.0825C152.813 55.9181 151.015 51.5757 147.352 49.3491L143.283 46.8755C140.803 45.3684 139.116 42.8432 138.672 39.9758L137.944 35.2698C137.289 31.0338 133.965 27.7102 129.729 27.0548L125.023 26.3267C122.156 25.8831 119.631 24.1958 118.124 21.7164L115.65 17.6473C113.423 13.9846 109.081 12.1859 104.917 13.2014L100.29 14.3296C97.4713 15.017 94.4927 14.4246 92.1514 12.7107Z" fill="url(#paint0_linear_1_212)"/>
<path d="M92.1514 12.7107L88.3089 9.89793C84.8502 7.36605 80.1499 7.36605 76.6912 9.89794L72.8487 12.7107C70.5074 14.4246 67.5288 15.017 64.7099 14.3296L60.0835 13.2014C55.9191 12.1859 51.5767 13.9846 49.3501 17.6473L46.8765 21.7164C45.3693 24.1958 42.8442 25.8831 39.9767 26.3267L35.2708 27.0548C31.0348 27.7102 27.7112 31.0338 27.0558 35.2698L26.3277 39.9758C25.884 42.8432 24.1968 45.3684 21.7174 46.8755L17.6483 49.3491C13.9855 51.5757 12.1868 55.9181 13.2024 60.0825L14.3306 64.7089C15.018 67.5278 14.4255 70.5065 12.7117 72.8477L9.89891 76.6902C7.36703 80.1489 7.36703 84.8492 9.89891 88.308L12.7117 92.1504C14.4255 94.4917 15.018 97.4703 14.3306 100.289L13.2024 104.916C12.1868 109.08 13.9855 113.422 17.6483 115.649L21.7174 118.123C24.1968 119.63 25.884 122.155 26.3277 125.022L27.0558 129.728C27.7112 133.964 31.0348 137.288 35.2708 137.943L39.9767 138.671C42.8442 139.115 45.3693 140.802 46.8765 143.282L49.3501 147.351C51.5767 151.014 55.9191 152.812 60.0835 151.797L64.7099 150.669C67.5288 149.981 70.5074 150.574 72.8487 152.287L76.6912 155.1C80.1499 157.632 84.8502 157.632 88.3089 155.1L92.1514 152.287C94.4927 150.574 97.4713 149.981 100.29 150.669L104.917 151.797C109.081 152.812 113.423 151.014 115.65 147.351L118.124 143.282C119.631 140.802 122.156 139.115 125.023 138.671L129.729 137.943C133.965 137.288 137.289 133.964 137.944 129.728L138.672 125.022C139.116 122.155 140.803 119.63 143.283 118.123L147.352 115.649C151.015 113.422 152.813 109.08 151.798 104.916L150.67 100.289C149.982 97.4703 150.575 94.4917 152.288 92.1504L155.101 88.3079C157.633 84.8492 157.633 80.1489 155.101 76.6902L152.288 72.8477C150.575 70.5065 149.982 67.5278 150.67 64.7089L151.798 60.0825C152.813 55.9181 151.015 51.5757 147.352 49.3491L143.283 46.8755C140.803 45.3684 139.116 42.8432 138.672 39.9758L137.944 35.2698C137.289 31.0338 133.965 27.7102 129.729 27.0548L125.023 26.3267C122.156 25.8831 119.631 24.1958 118.124 21.7164L115.65 17.6473C113.423 13.9846 109.081 12.1859 104.917 13.2014L100.29 14.3296C97.4713 15.017 94.4927 14.4246 92.1514 12.7107Z" fill="white" fill-opacity="0.25"/>
<path fill-rule="evenodd" clip-rule="evenodd" d="M91.4358 13.6883L87.5933 10.8755C84.5607 8.65556 80.4394 8.65556 77.4068 10.8755L73.5643 13.6883C70.9346 15.6133 67.589 16.2788 64.4228 15.5066L59.7965 14.3784C56.1451 13.488 52.3376 15.0651 50.3853 18.2767L47.9118 22.3457C46.2189 25.1306 43.3827 27.0257 40.162 27.524L35.456 28.2521C31.7419 28.8268 28.8277 31.7409 28.2531 35.4551L27.525 40.161C27.0267 43.3817 25.1315 46.2179 22.3467 47.9108L18.2776 50.3844C15.0661 52.3366 13.489 56.1441 14.3794 59.7955L15.5076 64.4219C16.2797 67.5881 15.6143 70.9336 13.6893 73.5634L10.8765 77.4058C8.65653 80.4385 8.65654 84.5597 10.8765 87.5923L13.6893 91.4348C15.6143 94.0645 16.2797 97.4101 15.5076 100.576L14.3794 105.203C13.489 108.854 15.0661 112.661 18.2776 114.614L22.3467 117.087C25.1315 118.78 27.0267 121.616 27.525 124.837L28.2531 129.543C28.8277 133.257 31.7419 136.171 35.456 136.746L40.162 137.474C43.3827 137.972 46.2189 139.868 47.9118 142.652L50.3854 146.721C52.3376 149.933 56.1451 151.51 59.7965 150.62L64.4228 149.491C67.5891 148.719 70.9346 149.385 73.5643 151.31L77.4068 154.123C80.4394 156.343 84.5607 156.343 87.5933 154.123L91.4358 151.31C94.0655 149.385 97.4111 148.719 100.577 149.492L105.204 150.62C108.855 151.51 112.662 149.933 114.615 146.721L117.088 142.652C118.781 139.868 121.617 137.972 124.838 137.474L129.544 136.746C133.258 136.171 136.172 133.257 136.747 129.543L137.475 124.837C137.973 121.616 139.869 118.78 142.653 117.087L146.722 114.614C149.934 112.661 151.511 108.854 150.621 105.203L149.492 100.576C148.72 97.4101 149.386 94.0645 151.311 91.4348L154.124 87.5923C156.344 84.5597 156.344 80.4385 154.124 77.4058L151.311 73.5633C149.386 70.9336 148.72 67.5881 149.492 64.4219L150.621 59.7955C151.511 56.1441 149.934 52.3366 146.722 50.3844L142.653 47.9108C139.869 46.2179 137.973 43.3817 137.475 40.161L136.747 35.4551C136.172 31.7409 133.258 28.8268 129.544 28.2521L124.838 27.524C121.617 27.0257 118.781 25.1306 117.088 22.3457L114.615 18.2767C112.662 15.0651 108.855 13.488 105.204 14.3784L100.577 15.5066C97.4111 16.2788 94.0655 15.6133 91.4358 13.6883ZM88.3089 9.89793L92.1514 12.7107C94.4927 14.4246 97.4713 15.017 100.29 14.3296L104.917 13.2014C109.081 12.1859 113.423 13.9846 115.65 17.6473L118.124 21.7164C119.631 24.1958 122.156 25.8831 125.023 26.3267L129.729 27.0548C133.965 27.7102 137.289 31.0338 137.944 35.2698L138.672 39.9758C139.116 42.8432 140.803 45.3683 143.283 46.8755L147.352 49.3491C151.015 51.5757 152.813 55.9181 151.798 60.0825L150.67 64.7089C149.982 67.5278 150.575 70.5064 152.288 72.8477L155.101 76.6902C157.633 80.1489 157.633 84.8492 155.101 88.3079L152.288 92.1504C150.575 94.4917 149.982 97.4703 150.67 100.289L151.798 104.916C152.813 109.08 151.015 113.422 147.352 115.649L143.283 118.123C140.803 119.63 139.116 122.155 138.672 125.022L137.944 129.728C137.289 133.964 133.965 137.288 129.729 137.943L125.023 138.671C122.156 139.115 119.631 140.802 118.124 143.282L115.65 147.351C113.423 151.014 109.081 152.812 104.917 151.797L100.29 150.669C97.4713 149.981 94.4927 150.574 92.1514 152.287L88.3089 155.1C84.8502 157.632 80.1499 157.632 76.6912 155.1L72.8487 152.287C70.5074 150.574 67.5288 149.981 64.7099 150.669L60.0835 151.797C55.9191 152.812 51.5767 151.014 49.3501 147.351L46.8765 143.282C45.3693 140.802 42.8442 139.115 39.9767 138.671L35.2708 137.943C31.0348 137.288 27.7112 133.964 27.0558 129.728L26.3277 125.022C25.884 122.155 24.1968 119.63 21.7174 118.123L17.6483 115.649C13.9855 113.422 12.1868 109.08 13.2024 104.916L14.3306 100.289C15.018 97.4703 14.4255 94.4917 12.7117 92.1504L9.89891 88.308C7.36703 84.8492 7.36703 80.1489 9.89891 76.6902L12.7117 72.8477C14.4255 70.5065 15.018 67.5278 14.3306 64.7089L13.2024 60.0825C12.1868 55.9181 13.9855 51.5757 17.6483 49.3491L21.7174 46.8755C24.1968 45.3684 25.884 42.8432 26.3277 39.9758L27.0558 35.2698C27.7112 31.0338 31.0348 27.7102 35.2708 27.0548L39.9767 26.3267C42.8442 25.8831 45.3693 24.1958 46.8765 21.7164L49.3501 17.6473C51.5767 13.9846 55.9191 12.1859 60.0835 13.2014L64.7099 14.3296C67.5288 15.017 70.5074 14.4246 72.8487 12.7107L76.6912 9.89794C80.1499 7.36605 84.8502 7.36605 88.3089 9.89793Z" fill="#1C0057"/>
<path fill-rule="evenodd" clip-rule="evenodd" d="M97.1794 40.803C90.977 33.0578 85.1166 29.4686 79.5628 28.4279C78.4866 28.2262 77.7777 27.1903 77.9794 26.1141C78.181 25.038 79.2169 24.3291 80.2931 24.5307C87.0705 25.8007 93.6947 30.1083 100.274 38.3246C102.105 40.6103 103.854 43.0073 105.515 45.489C106.123 46.399 105.879 47.6303 104.969 48.2391C104.059 48.8479 102.828 48.6037 102.219 47.6936C100.618 45.3009 98.9353 42.9956 97.1794 40.803ZM90.4408 45.6038C85.5174 39.4557 80.9062 36.6567 76.5862 35.8472C75.5101 35.6455 74.8011 34.6096 75.0028 33.5335C75.2045 32.4573 76.2403 31.7484 77.3165 31.95C82.86 32.9888 88.235 36.5062 93.5357 43.1254C95.0072 44.963 96.4134 46.8895 97.7473 48.8835C98.3561 49.7935 98.1119 51.0248 97.2019 51.6336C96.2918 52.2424 95.0606 51.9981 94.4518 51.0881C93.1774 49.1831 91.8378 47.3484 90.4408 45.6038ZM76.523 47.4718C75.638 46.0724 73.7862 45.6554 72.3868 46.5403C70.9874 47.4252 70.5704 49.2771 71.4553 50.6765L85.8298 73.4071C86.415 74.3325 86.1392 75.5571 85.2138 76.1423C84.2884 76.7274 83.0638 76.4517 82.4786 75.5263L65.9747 49.4281C65.0897 48.0288 63.2379 47.6117 61.8385 48.4967C60.4391 49.3816 60.0221 51.2334 60.907 52.6328L77.411 78.731C77.9962 79.6563 77.7204 80.8809 76.795 81.4661C75.8697 82.0513 74.6451 81.7755 74.0599 80.8502L61.815 61.487C60.93 60.0876 59.0782 59.6706 57.6788 60.5555C56.2795 61.4405 55.8624 63.2923 56.7474 64.6917L71.1218 87.4223C71.707 88.3477 71.4312 89.5723 70.5058 90.1575C69.5805 90.7427 68.3559 90.4669 67.7707 89.5415L55.5258 70.1784C54.6401 68.7812 52.7881 68.3626 51.3896 69.2469C49.9902 70.1319 49.5732 71.9837 50.4582 73.3831L64.8704 96.1735L64.9038 96.2358C71.5235 108.57 77.3188 116.679 83.4776 120.398C86.4791 122.211 89.561 122.973 92.9332 122.658C96.3481 122.34 100.197 120.903 104.663 118.079C108.459 115.679 111.783 111.429 113.715 106.611C115.65 101.786 116.082 96.6719 114.493 92.5342L114.438 92.3885L108.954 66.579C108.724 65.4996 107.743 64.748 106.641 64.8079C105.379 64.8764 104.423 65.9755 104.531 67.2352L105.984 84.2575C106.231 87.1531 102.426 88.4333 100.873 85.9771L76.523 47.4718ZM52.5377 64.8313C51.8008 61.9813 52.938 58.8623 55.5597 57.2044C56.4668 56.6307 57.4559 56.2926 58.4551 56.174L57.5559 54.752C55.5006 51.5018 56.4692 47.2009 59.7193 45.1455C62.341 43.4877 65.6463 43.7973 67.9053 45.6848C68.4529 44.6997 69.248 43.834 70.2676 43.1892C73.5178 41.1338 77.8187 42.1024 79.8741 45.3526L101.619 79.7381L100.58 67.5726C100.282 64.0831 102.929 61.0387 106.426 60.8488C109.478 60.683 112.197 62.7649 112.832 65.7549L118.252 91.2637C120.234 96.5749 119.556 102.699 117.395 108.087C115.211 113.533 111.405 118.507 106.782 121.43C101.987 124.462 97.5377 126.211 93.3014 126.606C89.0223 127.005 85.0998 126.01 81.428 123.792C74.2525 119.459 68.0347 110.445 61.4438 98.1732L47.107 75.5023C45.0517 72.2521 46.0203 67.9511 49.2704 65.8958C50.2901 65.251 51.4131 64.9038 52.5377 64.8313ZM36.524 75.6933C37.5462 75.3009 38.6929 75.8115 39.0852 76.8337C40.5927 80.7611 42.662 84.7921 44.8895 87.9357C46.0034 89.5077 47.1253 90.8129 48.1994 91.7671C49.2923 92.738 50.2177 93.2404 50.935 93.4019C52.0031 93.6425 52.674 94.7034 52.4335 95.7715C52.1929 96.8397 51.132 97.5106 50.0639 97.27C48.4329 96.9027 46.9148 95.9295 45.566 94.7313C44.1986 93.5165 42.8809 91.959 41.6544 90.2281C39.2011 86.7659 36.9861 82.4297 35.3836 78.2545C34.9912 77.2323 35.5018 76.0856 36.524 75.6933ZM29.5637 79.1936C30.5859 78.8013 31.7326 79.3118 32.125 80.334C34.0215 85.2751 36.6267 90.3527 39.4398 94.3227C40.8465 96.3079 42.2736 97.9711 43.6531 99.1967C45.0514 100.439 46.2825 101.126 47.2935 101.354C48.3617 101.594 49.0326 102.655 48.792 103.723C48.5515 104.791 47.4906 105.462 46.4224 105.222C44.4976 104.788 42.6739 103.63 41.0197 102.161C39.3469 100.675 37.724 98.7592 36.2047 96.6151C33.1659 92.3265 30.415 86.9437 28.4233 81.7548C28.031 80.7327 28.5416 79.586 29.5637 79.1936Z" fill="#1C0057"/>
<defs>
<linearGradient id="paint0_linear_1_212" x1="159.353" y1="159.352" x2="-29.1501" y2="30.3251" gradientUnits="userSpaceOnUse">
<stop stop-color="#52C069"/>
<stop offset="1" stop-color="#0EB5C5"/>
</linearGradient>
</defs>
</svg>
